<?xml-stylesheet type="text/css" href="styles/index.css"?>
<svg id="earth-svg" xmlns="http://www.w3.org/2000/svg" enable-background="new 0 0 783.086 400.649" viewBox="0 0 783.086 400.649">
 <path fill="white" d="m 346.725 131.376 l -3.377 4.501 l -2.25 2.251 l -4.501 2.475 l -0.676 2.026 c 0 0 -1.801 1.801 -1.575 2.927 s 0.226 3.151 0.226 3.151 s -3.151 2.926 -4.502 3.826 s -3.152 2.926 -3.152 2.926 s -1.125 1.351 -1.8 1.801 s -1.8 1.8 -2.701 3.151 s -1.801 2.25 -2.251 2.925 c -0.45 0.675 -1.801 2.251 -2.476 4.727 s -2.476 5.402 -2.476 5.402 l -0.451 1.125 c 0.226 3.827 0.225 4.502 0.676 5.853 s 0.901 0.899 0.45 3.826 c -0.45 2.925 -0.45 4.051 -0.9 5.402 s -1.801 3.825 -2.25 4.952 s 0.9 3.15 0.9 3.15 s 0.676 2.927 0.225 3.602 c -0.45 0.676 0.225 2.026 0.225 2.026 s 2.701 1.575 3.602 2.476 s 2.476 2.251 2.701 2.926 s 2.026 3.827 2.251 4.502 s 2.026 3.15 2.476 3.826 s 2.701 3.152 2.701 3.152 s 2.926 2.249 3.602 3.15 s 2.701 1.35 3.375 2.025 c 0.676 0.675 2.251 0.449 3.151 1.126 s 2.701 -0.451 3.602 0 s 3.377 -0.45 4.052 -0.9 c 0.675 -0.45 2.25 -2.025 3.376 -1.351 s 1.8 0 2.701 0.225 s 2.25 -0.899 3.15 -0.899 s 3.151 -0.901 3.826 -0.901 s 2.927 -1.352 3.828 -1.352 s 2.025 -0.898 3.15 -0.449 s 0.675 -0.899 2.701 -0.225 s 2.701 0 3.376 0.674 c 0.676 0.676 1.577 0.002 2.252 0.902 c 0.675 0.899 1.8 1.574 2.025 2.475 s 1.575 1.802 1.575 1.802 l 1.351 0.224 c 0 0 1.802 -1.35 2.251 -0.449 s 2.476 0.676 2.476 0.676 l 2.025 2.25 l 0.676 0.9 c 0 0 1.351 3.602 1.125 4.952 s -0.225 4.276 -0.9 4.951 c -0.675 0.676 -1.125 3.602 -1.125 3.602 s -0.901 0.9 1.125 2.701 s 3.377 3.376 4.052 4.275 c 0.676 0.901 2.477 3.378 2.7 4.953 c 0.226 1.575 0.676 2.475 1.577 4.501 s 2.025 2.251 2.25 4.503 s 0.675 2.251 0.45 3.825 c -0.225 1.576 -0.9 1.801 -0.225 2.926 s 1.574 3.152 1.351 3.827 c -0.225 0.675 -0.676 3.601 -0.676 3.601 l -0.45 1.351 l -2.025 3.828 l -1.351 2.024 c -0.45 1.575 -1.35 3.151 -1.125 5.402 c 0.224 2.251 -1.125 2.25 0.675 4.5 s 2.7 4.728 3.826 6.754 c 1.126 2.025 1.801 4.051 2.025 5.401 c 0.226 1.351 1.126 1.802 1.576 3.602 s 0.675 2.7 0.675 3.826 s -0.226 4.052 0.226 4.727 s 0.675 2.702 0.9 3.602 c 0.225 0.901 -0.676 1.126 0.675 2.702 s 2.251 2.475 3.151 3.601 s 0.675 0.675 1.351 2.251 s 1.575 2.477 1.801 3.826 s 0.449 4.726 1.125 6.302 s 1.575 3.152 1.575 3.152 s 2.477 1.575 3.377 1.35 c 0.899 -0.225 2.701 -2.249 4.052 -1.575 c 1.351 0.675 2.476 0 3.601 0 s 2.251 -1.351 3.377 -1.351 s 2.7 -1.801 3.602 -1.35 s 2.024 -0.452 3.15 -1.577 c 1.126 -1.124 1.801 -2.024 3.826 -3.825 s 1.801 -1.802 3.151 -2.927 s 2.702 -3.602 4.277 -4.052 s 2.025 -2.024 2.475 -3.15 s 0.675 -1.801 1.351 -2.702 s 0.225 0.228 1.351 -2.7 s 2.478 -4.051 3.603 -4.727 s 1.8 -2.025 2.475 -2.251 s 1.801 0.675 1.351 -1.351 c -0.449 -2.025 0 -4.951 -0.449 -5.626 s -1.127 1.574 -0.901 -1.803 s 2.701 -6.752 2.701 -6.752 s 3.376 -4.276 4.502 -4.951 s 1.35 -1.35 2.927 -2.251 c 1.574 -0.899 4.951 -3.15 4.951 -4.276 s 1.351 -4.052 1.351 -4.728 s 0 -1.35 -0.449 -5.177 s 0.449 -2.926 -0.901 -6.527 s -1.577 -8.103 -2.476 -9.228 s -0.451 -4.053 -0.451 -4.952 s 1.577 -3.151 2.252 -4.051 c 0.675 -0.901 3.601 -4.503 3.601 -4.503 s 4.501 -5.176 6.077 -7.651 c 1.576 -2.477 3.151 -4.727 4.276 -5.627 s 3.827 -2.928 5.402 -5.178 s 4.727 -6.526 4.953 -7.203 c 0.224 -0.674 2.024 -2.925 2.024 -2.925 s 2.476 -2.927 2.927 -4.502 c 0.449 -1.576 2.699 -10.354 2.249 -9.904 s -3.15 0.9 -4.051 1.125 c -0.899 0.226 1.352 1.125 -5.177 0.676 s -9.902 0.675 -9.902 0.675 c -2.027 -0.451 -3.602 1.8 -4.278 -1.351 s -1.126 -4.951 -2.475 -7.202 s -2.252 -3.151 -4.276 -6.078 c -2.025 -2.925 -1.802 -1.576 -3.603 -3.825 s -2.251 -1.577 -3.376 -4.502 c -1.125 -2.926 -2.025 -1.8 -3.376 -5.852 s -2.251 -4.503 -2.926 -6.753 s -1.575 -2.927 -2.026 -4.952 c -0.45 -2.026 -5.626 -12.379 -6.302 -13.055 c -0.676 -0.674 -1.801 -4.277 -1.576 -3.601 c 0.226 0.675 3.377 2.926 3.377 2.926 s 1.8 -0.676 2.476 -0.676 s 3.376 2.477 3.376 3.376 s 4.729 5.178 5.853 8.329 c 1.125 3.151 2.478 5.402 2.701 6.302 s 2.476 4.502 3.377 5.853 s 3.825 4.051 4.275 5.402 s 4.728 5.852 4.728 8.778 s 2.024 6.752 2.25 7.652 s 4.276 2.027 4.276 2.027 l 5.403 -1.351 c 0 0 8.102 -5.178 9.003 -5.178 s 8.104 -3.376 8.104 -3.376 s 2.925 -2.7 4.95 -4.275 s 4.277 -4.501 4.728 -5.853 s 1.35 -1.575 3.15 -3.602 s 4.277 -4.051 2.702 -5.402 s -2.477 -0.9 -4.727 -3.151 s -2.026 -1.8 -3.602 -4.727 c -1.576 -2.925 0.225 -6.302 -3.152 -2.925 s -2.025 4.276 -5.402 4.953 c -3.375 0.674 -4.727 2.925 -6.302 0.674 s -3.15 -0.9 -4.052 -4.277 s -1.576 -3.602 -1.8 -4.951 s 0 -1.351 -1.801 -4.728 s -0.45 -8.553 0.675 -5.627 s 2.926 3.376 5.853 5.402 c 2.925 2.025 4.277 3.602 6.977 3.827 c 2.701 0.224 4.952 0 5.402 0.449 s 0.9 -0.224 2.026 0.225 s 1.574 -0.674 2.025 1.125 s 2.926 2.026 4.051 3.151 s 1.126 0.676 4.053 1.125 s 6.979 0.451 6.979 0.451 l 4.275 -0.226 l 4.952 0.449 c 0 0 3.603 2.026 4.502 2.026 s 1.125 2.477 3.376 3.827 s 2.701 1.575 4.051 3.151 s 1.126 2.251 2.926 3.826 s 4.729 -0.224 5.179 -0.898 c 0.448 -0.676 2.699 -1.801 2.251 0 s 2.249 1.124 1.574 5.402 s -1.126 3.15 0 6.077 s 6.077 11.929 6.303 14.63 s 1.575 1.801 1.8 4.278 s 1.575 3.375 1.575 5.176 s 1.577 2.25 1.801 3.602 c 0.227 1.351 2.702 0.224 3.377 0 c 0.676 -0.226 3.826 -3.152 3.826 -3.152 s 1.353 -0.449 1.126 -2.701 s 0 -1.8 0 -5.176 s -1.35 -3.376 -0.675 -6.751 s 2.475 -5.403 2.926 -6.978 s 2.251 -4.276 3.15 -4.502 s 5.853 -2.7 6.979 -4.277 s 2.926 -3.376 4.727 -5.176 s 4.951 -4.051 5.627 -3.376 s 0.45 0.45 1.576 0.45 s 3.151 0.901 4.726 1.126 c 1.576 0.225 4.728 4.051 5.403 6.077 c 0.675 2.026 0.225 1.575 2.701 4.502 c 2.476 2.925 4.727 1.124 4.727 4.726 s 0 3.376 1.126 4.727 s 2.475 -2.476 3.825 -2.025 s 1.575 -0.45 2.7 3.151 s 1.8 3.602 2.027 7.203 c 0.224 3.601 -0.226 0.225 -0.226 3.15 c 0 2.927 -0.226 3.152 0.226 5.852 s 2.023 3.603 1.8 4.053 c 0 0 1.35 -3.826 0.899 -6.528 s 0 -6.526 1.126 -7.651 s 2.252 -2.251 3.151 0.675 c 0.901 2.925 1.351 0.675 3.376 4.051 c 2.027 3.377 3.827 2.7 4.052 4.276 s 1.353 1.802 2.926 3.151 c 1.576 1.351 2.926 -0.224 4.727 -1.575 s 6.752 -6.303 6.979 -8.329 c 0.224 -2.025 2.25 -1.576 -1.352 -6.751 s -3.602 -6.978 -7.428 -10.129 c -3.824 -3.151 -6.076 -3.376 -3.149 -7.428 s 4.277 -6.752 6.077 -5.626 s 4.95 0.899 4.95 5.402 s -0.9 9.453 2.251 4.051 s 4.728 -8.553 3.826 -7.651 s 2.026 -1.801 2.026 -1.801 s 0.226 -2.026 4.053 -2.926 s 4.95 -1.351 6.302 -2.026 c 1.35 -0.676 5.177 -5.178 5.852 -7.203 s 2.476 -5.627 2.026 -7.202 s -2.702 -9.228 -3.152 -9.004 c -0.449 0.226 -0.224 0.226 -3.149 -2.925 c -2.928 -3.151 -4.953 -5.402 -5.403 -6.753 s -1.576 -1.576 -0.226 -3.376 s 2.027 -1.575 2.252 -3.151 s 2.024 -2.926 -1.352 -1.8 s -0.9 0.451 -3.826 0.226 s -10.578 1.575 -6.751 -3.151 s 4.949 -7.652 5.625 -7.652 s 4.053 -3.827 4.277 -0.226 c 0.226 3.601 1.575 2.7 1.801 4.951 s 4.727 -2.475 4.727 -2.475 s 1.575 0.45 2.7 1.575 s 1.126 4.727 1.126 4.727 s -0.9 -1.126 1.576 0.675 s 5.176 0.9 5.176 4.727 s 0 4.052 1.576 4.952 s 3.15 0.451 4.503 -0.675 s 3.6 -5.177 3.6 -5.177 s 0.225 -1.576 -3.376 -3.827 s -5.852 -3.825 -7.201 -4.951 s -0.901 -4.501 0.448 -5.853 s 2.026 -2.026 1.576 -3.826 s 0.676 -3.152 4.052 -2.927 s 4.051 -0.224 4.051 -0.224 s 0.677 0.449 0.677 -0.901 s 4.275 -7.653 3.149 -7.653 s 0.228 -1.575 -0.45 -4.051 s 2.251 -6.302 -0.224 -8.103 s -3.152 -2.702 -4.727 -5.402 s -1.352 -3.151 -7.203 -3.827 s -8.553 1.351 -9.904 -0.449 s -2.025 2.7 -2.925 -2.702 s 1.351 -9.004 1.351 -9.004 s 3.601 -2.25 4.5 -3.826 s 4.501 -2.251 7.43 -1.125 s 7.201 0.9 10.804 1.577 c 3.601 0.674 3.376 2.925 5.177 0 c 1.8 -2.928 0 -4.277 1.35 -5.853 s 2.926 -4.052 4.051 -2.477 c 1.125 1.577 3.379 3.151 5.18 1.125 c 1.8 -2.025 2.475 -2.25 2.475 -2.25 l 0.898 0.901 c 0 0 2.026 -1.127 2.026 0.898 c 0 2.027 2.027 4.278 0.901 5.853 s -2.7 1.351 -2.7 5.177 s 0 3.152 2.474 6.304 c 2.477 3.15 4.052 0.449 4.502 3.826 s 0.899 2.702 3.377 4.952 s 2.024 2.25 3.826 3.601 s 2.702 2.702 2.702 0.451 s 0.225 -3.376 0 -5.402 c -0.227 -2.025 1.801 -3.602 0.448 -6.978 s -0.224 -3.151 -2.925 -5.627 s -4.503 0.451 -5.401 -3.151 s 4.275 -5.177 5.627 -5.627 s 3.374 -3.151 3.824 -1.35 s -3.375 8.328 3.153 1.35 s 3.601 -4.051 3.601 -4.051 s 3.376 -0.45 4.051 0 c 0.674 0.451 2.478 -2.026 1.8 -1.8 s -7.2 -3.602 -7.2 -3.602 l -4.729 -2.7 c 0 0 1.577 -1.126 2.702 -0.9 s 1.352 -2.251 2.478 -2.477 s 8.777 1.577 10.354 2.477 s 7.201 1.125 6.525 0.675 s -4.275 -3.151 -4.501 -4.052 c -0.224 -0.9 -8.103 -2.701 -10.578 -2.476 c -2.477 0.224 -4.726 0.899 -6.752 0.224 s -4.952 -2.476 -6.528 -2.476 s -21.382 -3.826 -22.282 -3.601 s -2.252 4.501 -2.927 3.826 s -1.8 -0.676 -4.953 -1.576 s -7.427 -1.576 -13.055 -2.025 s -9.451 0.45 -11.027 -1.351 s -4.951 -1.125 -8.778 -1.351 c -3.826 -0.224 -8.328 0 -10.354 0 s -6.751 -0.224 -7.877 -0.45 s -2.476 -1.801 -3.826 -2.025 c -1.352 -0.226 -1.127 -0.675 -3.827 -1.125 s -2.476 -3.376 -3.376 -0.901 c -0.9 2.477 -0.451 1.801 -1.801 2.701 s -2.701 2.701 -3.602 2.701 s -4.5 0.225 -5.177 -0.225 s -1.801 -0.9 -4.052 -0.9 s -2.251 0.224 -5.177 -0.226 s -5.177 -0.226 -7.878 -1.575 s -2.701 -2.251 -4.952 -2.026 s -2.249 -0.45 -5.402 -0.45 s -6.976 1.801 -9.003 2.026 c -2.024 0.225 -6.526 -0.226 -8.102 -0.901 s -2.026 -2.25 -7.879 -1.576 c -5.852 0.676 -9.228 0.676 -8.103 -1.125 s 2.476 -3.601 3.151 -3.826 c 0.676 -0.225 2.25 -1.35 1.124 -1.8 c -1.124 -0.451 -2.25 -1.125 -4.95 -1.351 s -2.478 0.9 -6.528 0.45 s 2.251 -1.575 -6.076 -1.35 c -8.328 0.226 -10.354 0.9 -11.254 0.9 s -2.027 -1.8 -4.277 0.9 s -5.404 4.276 -9.904 4.501 s -4.727 -0.45 -9.002 1.125 s -6.979 -0.45 -6.078 3.151 s 2.026 4.952 2.026 5.627 s -2.026 5.177 -4.501 2.476 s -6.979 -13.28 -4.953 -6.077 c 2.025 7.202 6.526 9.679 2.251 10.804 s -3.828 -0.45 -4.503 -0.901 c -0.674 -0.45 0 -3.601 -0.225 -5.402 s -0.675 -2.926 -1.575 -3.826 s -0.676 -2.251 -2.476 -2.701 s -0.225 -1.351 -3.151 -1.351 s -5.401 -1.801 -4.726 2.251 s 1.349 1.351 3.149 5.177 s 5.177 1.125 2.702 3.826 c -2.476 2.701 -9.003 1.801 -10.579 0.676 s -1.125 0.45 -4.053 -1.576 s -2.024 -3.602 -5.4 -2.026 s -4.502 4.502 -5.853 3.376 s -4.501 1.575 -5.627 0.226 s -5.628 -1.351 -6.527 0 s -3.602 1.125 -7.428 2.926 s -2.702 0.224 -7.428 4.051 s -7.429 6.977 -9.003 4.501 c -1.576 -2.475 -10.13 -6.752 -6.753 -7.428 s 4.952 -2.025 6.753 -0.45 s 4.728 1.126 5.176 0 s 2.477 -2.251 -0.225 -3.601 s -2.926 -0.451 -7.202 -2.026 c -4.277 -1.576 0 -1.125 -5.853 -2.026 s -8.329 -1.35 -9.904 -1.8 s -3.826 0 -6.076 -0.225 s -3.826 -0.675 -5.853 -0.45 c -2.025 0.225 -3.15 -0.225 -5.852 1.801 s -4.728 2.926 -6.528 4.501 s -6.526 4.727 -7.877 5.853 s -6.078 4.726 -6.528 6.077 s 0.45 2.476 -1.351 3.376 s -3.601 0.9 -4.952 1.125 c -1.351 0.225 0 -2.026 -1.351 0.225 s -0.9 10.354 0.225 9.228 s 0.45 -4.726 5.402 -1.349 s 8.104 2.925 7.878 6.076 s 3.376 2.926 3.826 3.602 c 0.45 0.674 2.701 -0.901 2.701 -0.901 s 4.952 -3.151 4.952 -4.726 s 3.151 -5.177 3.151 -5.177 s -2.252 -1.125 -2.252 -3.376 s 0.677 -2.927 1.126 -5.178 s -2.476 0.001 4.277 -4.277 s 7.202 -1.349 7.202 -1.349 s 0.899 0.9 -0.226 2.25 s -3.151 4.953 -3.601 5.402 s 2.026 4.052 3.15 4.052 c 1.126 0 3.377 -0.901 4.728 -0.676 c 1.351 0.226 3.601 -0.674 4.276 -0.224 c 0.676 0.45 2.251 1.8 1.125 2.926 s -3.602 2.475 -5.401 2.026 s -4.503 -3.602 -2.927 0.9 s -0.225 5.627 -1.576 5.402 c -1.349 -0.225 -4.276 -2.475 -3.826 0.901 s -2.925 5.626 -3.601 5.626 s -2.025 -0.225 -2.025 -0.225 s -2.027 -0.226 -3.151 -0.226 c -1.126 0 -3.377 1.125 -4.052 2.026 c -0.676 0.9 -1.576 0.226 -2.701 0.226 s 0 -1.351 -2.251 -1.801 s -3.601 -0.9 -4.951 0 s -3.376 1.35 -4.277 0.675 s 0.451 -2.252 -1.351 -1.35 s -3.151 3.376 -3.826 3.602 c -0.675 0.224 2.026 0 -0.675 0.224 c -2.701 0.226 -3.826 0.902 -5.177 1.351 s 0.45 3.151 -2.026 4.051 s -0.674 -1.125 -3.151 0.9 c -2.476 2.027 -2.927 3.827 -3.826 4.052 c -0.901 0.226 -0.675 0.675 -2.701 0.9 c -2.026 0.225 -1.8 0.45 -2.927 0.675 s 0.226 0.676 -2.25 0.225 s -4.277 0.451 -3.827 1.351 s 8.778 3.376 2.476 3.151 s -4.276 0.9 -2.926 1.8 s 2.025 1.8 2.701 2.026 s 1.8 2.927 1.8 2.927 s 1.801 -0.226 0.676 1.35 s 0.45 2.026 -0.676 4.052 s -1.125 0.675 -2.025 1.125 s -2.251 2.026 -4.728 0.675 s -4.275 -2.026 -7.202 -2.25 c -2.926 -0.226 -0.901 -0.675 -2.926 0.899 c -2.026 1.577 -2.476 3.377 -2.25 5.402 c 0.225 2.025 0.45 4.727 -0.226 6.078 s -0.675 2.701 -0.226 4.727 c 0.451 2.025 1.802 2.927 1.802 2.927 s 3.151 0.449 3.826 0.675 s 2.026 -0.45 3.826 0.674 c 1.801 1.126 3.602 1.577 4.727 0.226 s 5.627 -2.926 6.979 -4.276 s 2.25 -1.8 1.575 -3.151 s 1.351 -4.727 2.476 -5.402 c 1.125 -0.675 3.601 -1.351 3.601 -1.351 l 2.701 -4.051 c 0 0 2.251 -2.477 3.376 -2.251 s 7.427 2.477 6.978 -0.449 s 0.45 -3.827 1.125 -2.702 s 2.476 0.675 2.476 0.675 s 0.9 -0.449 1.575 0.226 c 0.675 0.674 1.575 3.602 2.926 4.276 c 1.351 0.676 2.476 1.351 3.377 1.8 s 1.801 0 3.602 1.576 s 3.601 2.477 3.825 3.151 c 0.227 0.675 1.802 2.251 1.802 2.251 s 1.575 0.45 1.125 1.351 s -2.7 3.602 -3.826 4.051 s -4.051 -0.451 -2.926 0.45 c 1.124 0.9 2.701 2.026 3.376 1.35 c 0.676 -0.675 4.951 -5.177 4.951 -5.177 s -0.225 0.225 0 -1.126 s 0 -2.925 1.126 -2.25 c 1.125 0.676 1.801 1.576 2.251 0.676 s 0.9 -0.45 -0.226 -1.125 s -3.826 -4.502 -5.177 -4.727 s -4.728 -2.477 -4.728 -2.477 s -0.674 -0.675 -2.25 -2.475 s -2.025 -1.351 -2.477 -2.927 s -1.801 -3.601 0.676 -3.151 s 4.051 2.025 6.302 3.376 s 1.802 1.8 3.827 3.151 s 2.252 2.702 3.826 2.477 c 1.575 -0.225 3.377 0.9 3.377 2.926 s 0.449 4.276 0.899 4.727 s 1.8 1.351 2.251 2.251 s 1.351 3.151 2.025 4.051 c 0.676 0.9 1.351 1.576 2.026 2.702 c 0.675 1.125 0.9 -0.226 1.575 0.225 c 0.676 0.45 1.576 0.224 1.576 -0.676 s 0.224 -2.476 0.224 -2.476 s 3.153 -0.9 2.253 -1.351 s -3.603 -3.151 -3.377 -4.051 s 0 -2.7 1.124 -2.475 c 1.126 0.224 2.252 2.25 4.728 0.449 s 5.402 -2.701 4.501 0 s 0.227 3.15 0 6.077 c -0.224 2.927 0.902 2.026 2.478 3.602 s 2.7 1.802 3.825 2.251 s 2.926 0.226 4.728 0.451 s 2.926 -0.676 4.502 -0.225 c 1.574 0.45 5.176 -0.226 5.852 0.225 s 3.377 -0.9 3.601 0.675 c 0.225 1.576 1.126 -0.225 0.451 3.376 s -1.576 6.077 -1.576 6.077 c -2.476 4.727 -3.376 5.853 -4.502 6.078 c -1.124 0.225 -1.8 0.9 -3.825 0.675 c -2.026 -0.226 -4.502 0 -7.428 -0.675 s -8.329 0.675 -10.579 -0.676 s -5.402 -0.225 -6.754 -1.8 s -3.6 -1.351 -4.501 -2.251 s -1.35 -3.375 -1.35 0.226 s -2.026 3.826 -2.476 5.627 s 0.674 0.9 -1.802 0.675 c -2.476 -0.226 -3.151 1.125 -6.752 -1.575 s -5.402 -2.701 -7.202 -3.827 s -3.602 2.025 -5.402 -1.575 s -4.277 -0.676 -4.502 -3.602 c -0.225 -2.927 0 -2.7 0.225 -4.501 s 2.701 -3.376 1.576 -4.051 s -0.226 -1.801 -1.801 -1.125 s -3.826 0.9 -5.627 1.575 c -1.801 0.676 4.051 0 -4.727 0.676 s -11.255 1.575 -11.255 1.575 s -0.675 -0.45 -1.801 0.45 s -2.701 2.251 -4.276 1.576 c -1.575 -0.676 -2.476 -0.451 -3.826 -0.225 s -2.25 -1.125 -3.826 0 c -1.576 1.124 -3.376 1.575 -4.052 1.124 c -0.677 -0.456 -1.803 -2.256 -1.803 -2.256 Z" />
 <path fill="white" d="m 497.305 279.479 c -0.675 2.477 -3.151 6.077 -3.151 6.077 l -4.503 2.251 c 0 0 -1.573 1.351 -2.475 1.576 c -0.9 0.224 -3.151 1.351 -3.151 1.351 s -2.025 -0.451 -1.351 1.574 c 0.675 2.026 0.901 4.503 0.675 5.177 c -0.224 0.676 -0.224 2.027 -0.224 3.828 s -0.675 4.05 -1.801 4.5 s -2.251 0.901 -2.026 2.477 s 0.226 6.302 0.226 6.302 l 2.927 4.502 c 0 0 0.9 -0.675 2.701 -0.675 s 3.601 -1.574 3.601 -1.574 s 2.027 0.448 1.8 -2.026 c -0.225 -2.477 0.902 -5.402 0.675 -6.078 c -0.224 -0.675 2.027 -3.602 2.027 -4.276 c 0 -0.676 2.251 -3.825 2.251 -4.952 s 1.575 -2.926 1.8 -4.275 s 0.45 -4.502 0.9 -5.402 s 0.676 -1.801 0.676 -2.701 s 0 -2.701 0 -2.701 l -1.577 -4.955 Z" />
 <path fill="white" d="m 673.544 309.866 c -0.675 0.899 -1.125 10.579 -1.575 11.704 s -1.351 6.978 -0.899 8.327 s 1.124 6.303 0.675 7.879 s 0.225 6.527 -0.902 6.302 c -1.124 -0.226 -1.573 0.226 -1.573 0.9 c 0 0.676 1.573 2.025 1.573 2.025 s 2.703 0.001 3.828 -0.225 s 3.376 -1.351 5.177 -1.351 s 2.927 -1.351 4.501 -1.351 c 1.576 0 4.953 -1.124 5.853 -0.675 s 2.25 -2.701 3.826 -2.025 s 4.953 -1.576 6.528 -1.576 s 2.251 -2.477 4.052 -2.025 s 5.177 -0.9 6.753 -0.227 c 1.573 0.677 4.051 -2.25 5.176 0 s 4.503 3.152 4.503 4.277 s -0.228 3.602 -0.228 3.602 l 2.702 -0.226 c 0 0 4.275 -2.701 4.952 -2.701 s 2.251 -2.25 2.251 -1.124 c 0 1.124 -1.352 3.602 -1.801 4.726 c -0.45 1.126 0.449 2.477 0.449 2.477 s 2.253 1.125 1.352 3.15 c -0.901 2.026 0.224 1.577 0 3.151 c -0.226 1.576 0 0.9 0.898 1.8 s 2.479 2.479 3.828 2.252 s 1.8 -1.575 2.926 -0.9 c 1.125 0.675 3.375 0.225 4.05 1.126 c 0.678 0.899 -4.275 3.15 4.278 -0.675 s 9.451 -4.728 10.577 -6.079 s 2.479 -2.7 3.377 -3.601 s 0.227 -0.675 2.926 -2.701 c 2.701 -2.025 2.701 -1.125 5.179 -4.952 s 4.275 -5.176 4.727 -5.852 s 1.35 -0.9 1.575 -3.603 c 0.225 -2.7 2.025 -5.176 2.025 -6.076 s 0.675 -2.249 0.45 -3.826 s 0.901 -3.825 -0.45 -6.076 s 0.675 -3.15 -1.351 -4.053 s -3.376 -0.449 -3.826 -2.025 s -2.252 -1.351 -2.927 -5.627 s -3.376 -4.728 -3.376 -4.728 s -2.701 -1.125 -2.026 -1.574 s 0.901 -3.603 0.677 -4.503 c -0.226 -0.9 -0.226 -2.926 -0.9 -4.275 c -0.675 -1.352 -1.126 -3.151 -1.801 -4.728 s -1.8 -2.026 -2.251 -3.826 s -1.126 -2.477 -1.35 -2.926 c -0.227 -0.45 -0.678 -2.7 -1.126 -0.226 c -0.45 2.476 -1.352 7.202 -1.352 7.202 s -1.801 3.828 -2.476 4.953 c -0.675 1.124 -1.35 4.051 -2.475 3.825 s -1.803 1.127 -2.701 0.9 s -2.251 0.226 -2.926 -0.449 s -2.476 -2.476 -3.377 -2.702 c -0.9 -0.224 -1.575 -2.024 -2.251 -2.024 s -1.801 -1.577 -1.575 -2.477 c 0.224 -0.9 0.449 -2.925 0.675 -3.826 c 0.224 -0.9 1.576 -2.927 1.576 -2.927 s 0 -1.35 -1.126 -1.35 s -1.351 0 -3.827 -0.226 s -3.149 -0.45 -4.052 -0.45 s 0.902 -0.45 -1.575 0.225 s -3.601 2.477 -5.177 4.053 c -1.573 1.575 -0.224 1.124 -1.573 1.575 s -1.126 -1.126 -2.027 1.351 s 0.451 3.15 -0.227 3.601 s -5.4 -1.575 -5.4 -1.575 s 1.125 -0.226 0.224 -1.351 s -1.8 -2.7 -3.149 -2.025 s -2.479 1.126 -3.377 2.251 s -0.901 2.025 -1.576 2.925 s -2.475 0.9 -2.701 1.801 s -0.225 3.151 -0.899 3.376 c -0.675 0.226 -0.9 -0.898 -1.575 -1.124 c -0.675 -0.225 -0.451 -2.026 -0.9 -0.9 s -0.9 0.899 -1.575 2.7 c -0.677 1.801 -0.901 3.377 -1.576 3.602 s 0 0.45 -2.027 1.576 c -2.024 1.125 -2.475 1.125 -5.4 2.476 c -2.925 1.351 -2.25 1.351 -4.276 1.575 c -2.025 0.226 -2.477 0.901 -3.827 1.126 c -1.352 0.225 -2.25 0.449 -3.602 1.8 s -2.475 1.8 -3.375 2.026 s -1.805 1.127 -1.805 1.127 Z" />
 <path fill="white" d="m 686.823 220.958 c -0.899 1.352 -3.825 5.402 -4.95 5.628 c -1.126 0.224 -2.252 1.351 -3.152 1.125 s -2.926 0 -3.601 2.926 s -1.801 4.502 -2.478 4.276 s 1.125 4.276 -2.7 2.477 s -2.475 1.576 -2.926 2.477 s 0.675 3.376 0.9 4.276 c 0.227 0.9 0.9 2.476 1.801 3.825 s 1.575 2.926 3.151 2.478 s 6.526 0 6.526 0 s 1.803 0.675 2.927 0.675 c 1.125 0 1.351 -0.45 2.025 -0.45 s 2.025 -2.252 1.801 -2.476 c -0.225 -0.227 -0.899 -0.901 0.45 -2.252 s 2.926 -1.8 3.152 -3.376 s -0.45 -1.575 0.225 -2.477 s 2.25 -0.673 1.801 -1.575 s 0.449 -0.675 -0.451 -2.477 s -2.026 -2.476 -1.126 -4.727 s 1.803 -2.701 1.577 -4.051 s 1.125 -1.801 -0.451 -3.377 c -1.574 -1.574 -2.25 -2.025 -3.376 -2.477 l -1.125 -0.448 Z" />
 <path fill="white" d="m 730.939 243.467 c 0.902 -0.225 4.052 -2.476 4.278 1.576 s 0.448 2.925 1.801 5.176 s 2.248 2.928 3.824 1.802 s 3.376 -1.127 3.826 -3.151 c 0.451 -2.026 0.451 -2.026 1.801 -2.026 s 1.801 -0.225 2.479 0.677 c 0.674 0.898 1.122 -0.002 4.05 1.574 s 5.401 1.124 7.204 2.701 s 2.701 1.352 5.176 2.251 s 1.35 -0.45 3.601 2.026 s 1.353 3.15 2.476 4.276 c 1.125 1.125 2.027 -0.901 1.576 1.8 s -3.601 0 1.126 3.825 s 5.402 4.504 6.976 5.628 c 1.577 1.126 2.702 2.477 1.353 2.477 s -5.628 0 -6.077 -0.676 s -2.476 -1.126 -3.828 -2.701 c -1.349 -1.574 -4.275 -2.701 -4.949 -4.051 c -0.677 -1.352 -1.577 -1.801 -2.702 -1.801 s -2.25 1.35 -3.827 2.926 s -0.898 -0.899 -2.926 -0.225 c -2.027 0.676 -4.275 -0.226 -5.402 -1.126 s -0.899 -2.25 -2.699 -1.575 s -2.926 0.225 -2.251 -1.125 s 0.224 -3.152 0.224 -3.152 s 0.677 -2.251 -0.898 -2.7 s -1.576 -2.025 -3.152 -2.477 s -4.051 -1.575 -4.051 -1.575 s -0.225 0 -0.901 -0.225 s -0.675 -0.226 -2.476 -0.675 s -3.152 -0.002 -4.051 -1.126 c -0.902 -1.125 -0.451 -2.701 -0.451 -2.701 s 3.601 0.45 0 -2.251 l -3.601 -2.7 s 0.448 -0.226 0.224 -0.676 c -0.227 -0.452 2.247 0 2.247 0 Z" />
 <path fill="#b2b2b2" d="m 629.65 224.78 s 1.125 1.127 2.926 0.901 s 3.149 3.601 4.277 4.951 c 1.124 1.351 1.801 2.026 4.276 3.602 c 2.475 1.575 2.25 -1.351 5.627 3.376 s 1.8 1.801 3.376 4.726 c 1.575 2.929 2.476 4.503 3.376 5.18 s 1.576 2.474 1.802 3.15 c 0.224 0.675 1.799 2.7 1.799 3.376 s 0.451 2.476 -0.899 4.051 s -2.477 1.801 -2.477 1.801 s -2.701 -1.351 -3.601 -2.701 s -2.025 -2.476 -3.602 -5.176 s -3.376 -5.628 -4.276 -6.978 s -2.251 -2.703 -2.926 -4.052 s -2.476 -5.402 -3.376 -5.853 s -1.126 -1.8 -2.702 -3.376 c -1.574 -1.576 -1.35 -2.926 -2.025 -3.826 s -2.25 -2.928 -2.25 -2.928 l 0.675 -0.224 Z" />
 <path fill="white" d="m 191.868 400.35 c -1.576 -0.9 -4.952 -2.476 -6.077 -3.376 s -4.501 -5.854 -4.501 -5.854 l -2.477 -4.727 c 0 0 -2.925 -3.601 -2.25 -4.951 c 0.675 -1.351 2.026 -2.251 2.026 -2.926 s 1.35 -2.477 0.224 -3.151 c -1.125 -0.676 -1.125 -0.9 -1.801 -2.926 c -0.675 -2.025 -0.675 -3.828 -1.575 -4.277 s -1.576 -3.376 -2.476 -3.601 s -1.801 -1.801 -1.801 -1.801 l -1.351 -18.232 c 0 0 -0.451 -8.327 -0.9 -10.129 s 0.675 -5.626 -0.451 -9.003 s 0.226 -7.427 -0.45 -8.778 s 0.45 -5.176 -0.225 -8.777 s 2.701 -8.103 0 -9.453 s -0.675 -3.377 -2.926 -3.377 s -3.826 -1.126 -5.852 -2.7 c -2.026 -1.576 -5.853 -4.503 -6.978 -5.629 c -1.125 -1.124 -4.727 -4.051 -5.852 -4.951 s -2.251 -4.727 -3.151 -5.853 c -0.9 -1.124 -1.35 -4.5 -2.701 -6.526 c -1.351 -2.025 -3.151 -5.401 -3.602 -6.077 s -5.402 -6.527 -5.402 -6.527 l 0.45 -3.601 c 0 0 3.376 -2.026 2.926 -2.701 s 0.226 -1.352 -1.351 -2.701 s -1.351 -3.828 0 -4.952 c 1.351 -1.127 3.376 -4.728 3.376 -4.728 l 3.376 -5.626 c 0 0 2.702 -2.928 2.702 -4.953 s 3.826 -3.375 1.575 -5.176 s -1.125 -3.377 -1.801 -4.728 s -0.225 -2.25 1.801 -3.601 s 5.627 -6.302 5.627 -6.302 s 2.701 -0.676 3.376 -0.676 s 1.801 -7.204 3.827 -2.477 s 2.701 2.251 2.026 5.627 s 0.9 2.702 1.8 1.802 s -0.451 0.675 1.35 -3.378 s 1.126 -5.401 2.251 -4.275 s 1.575 1.351 3.601 2.026 c 2.025 0.675 2.701 0.449 3.375 1.8 c 0.675 1.351 0.451 -0.45 4.277 0.226 s 9.228 -1.351 8.553 0.899 c -0.675 2.251 -2.026 -0.225 1.125 2.251 s 3.602 2.926 5.402 3.377 s 3.376 0.225 6.078 2.926 s 3.376 2.926 4.051 4.275 s 1.8 0.451 2.926 1.801 s 2.701 1.352 4.276 1.352 c 1.575 0 0 -1.352 2.476 0.45 s 4.277 2.024 5.402 5.626 s 3.376 3.377 1.575 6.979 s -5.401 5.177 -3.826 4.952 c 1.575 -0.226 4.502 -1.577 5.402 -1.351 c 0.9 0.224 1.35 -0.675 2.701 0 s 1.576 -0.9 1.351 0.675 s -0.226 0 -0.226 1.576 s -0.45 -1.576 2.251 -0.9 s 1.125 -1.352 4.276 1.575 s 3.152 2.027 4.276 3.602 c 1.126 1.574 2.251 -0.899 2.927 -0.225 s 2.701 0.224 4.727 0.675 s 0.675 -1.35 3.827 0.675 c 3.15 2.025 6.302 1.35 6.977 3.151 s 2.477 1.125 3.376 2.251 s 1.35 -0.451 2.251 1.126 c 0.9 1.574 3.602 1.124 3.151 2.699 c -0.451 1.577 0.674 0.676 0.224 2.926 s -2.026 5.854 -3.375 6.753 s -1.35 2.026 -2.251 3.151 s -0.675 -1.125 -1.801 2.026 s -0.9 3.602 -1.8 6.527 s -0.225 0 -0.9 2.926 s -0.225 4.727 -0.9 8.104 s -0.45 3.376 -0.9 5.852 s 1.125 -1.124 -0.901 4.051 c -2.025 5.178 -2.25 4.951 -2.925 7.203 c -0.676 2.252 0.225 0.45 -2.251 1.801 s -1.125 0.9 -4.052 1.801 c -2.925 0.9 -6.527 1.802 -7.652 2.026 s -5.627 1.575 -4.276 4.275 s 1.351 3.152 0 6.529 s -3.376 4.502 -3.376 6.076 c 0 1.575 -0.901 3.15 -1.125 4.276 c -0.226 1.126 2.025 -1.126 -0.675 2.251 s -2.926 2.476 -3.827 4.502 c -0.9 2.025 0 0.449 -0.9 2.025 s -3.151 2.25 -3.151 2.25 s 0.224 1.126 -0.676 0.676 s -0.675 0.225 -4.052 -0.676 s -3.826 -3.149 -4.276 -1.575 c -0.45 1.575 0.225 2.477 2.251 4.052 c 2.025 1.576 5.402 2.025 4.501 3.602 s -0.9 1.576 -1.575 2.476 c -0.676 0.901 0.9 0.225 -0.676 0.901 s -2.476 3.602 -3.151 3.602 c -0.675 0 -1.126 1.125 -2.026 0.675 s -3.15 -2.026 -3.601 -1.126 s -1.351 -1.126 -1.126 2.025 s 0.676 4.952 -0.45 5.628 s -3.827 0 -3.827 0 l -0.45 -1.126 l -1.575 0.45 c 0 0 -0.675 2.701 0.45 3.151 s 0.9 0.899 2.025 2.25 s 0.451 3.827 0.451 3.827 s 0 0.676 -1.125 1.801 s -1.576 2.026 -1.801 2.701 c -0.226 0.675 -1.576 3.602 0.45 3.376 c 2.025 -0.226 3.602 -1.351 3.602 2.251 s 0.9 2.702 -0.225 5.177 c -1.126 2.476 -2.026 2.701 -2.251 4.951 c -0.224 2.251 0.226 2.476 0.676 3.827 s 1.576 0.675 0.45 1.351 c -1.123 0.675 -4.499 0.001 -4.499 0.001 Z" />
 <path fill="white" d="m 133.796 217.132 l -1.575 -2.25 c 0 0 -0.675 -1.352 -1.801 -1.576 s -3.602 -3.151 -3.602 -3.151 s -1.125 -0.9 -1.125 -2.475 s -0.901 -4.051 -0.226 -6.752 s 0.901 -6.077 0.676 -6.978 c -0.226 -0.9 1.125 -1.125 -0.45 -2.026 s -4.727 -1.125 -6.753 -1.125 c -2.025 0 -4.502 0.676 -4.952 0.9 c -0.45 0.225 2.476 -6.752 2.926 -7.877 s 2.476 -6.078 2.476 -6.752 c 0 -0.676 0.675 -0.901 -0.675 -1.8 s -3.601 -1.351 -4.952 -0.676 c -1.35 0.676 -1.125 -0.9 -2.25 1.8 s -2.251 5.628 -3.602 6.078 s -4.051 1.801 -4.051 1.801 s -3.376 -0.225 -4.502 -0.45 s -5.852 -2.701 -6.752 -4.276 c -0.9 -1.576 -1.35 -4.953 -1.35 -6.527 c 0 -1.576 2.475 -6.302 2.25 -7.428 s 2.477 -5.627 2.251 -6.303 s 0.45 -2.926 1.125 -3.826 s 4.052 -2.026 4.952 -2.926 s 2.476 -2.025 4.051 -2.476 s 2.927 -0.9 4.052 -0.9 s 4.051 -2.476 4.501 0 s 2.477 1.575 3.602 1.8 s 1.351 1.351 3.151 -1.575 s 3.601 -3.827 3.601 -3.152 c 0 0.676 2.926 -0.224 3.376 0.451 s 1.351 -0.451 2.926 0.9 s 3.826 1.576 3.601 2.25 c -0.225 0.675 0.9 0.675 0.9 1.351 s 0.901 -1.576 0.901 2.475 s 1.125 6.528 1.125 6.528 s 1.575 3.377 2.25 2.701 s 2.025 -2.475 2.025 -2.475 s 2.251 -1.351 0.676 -6.078 c -1.576 -4.726 -0.45 -6.077 -0.9 -7.653 s -0.451 -2.477 2.25 -4.502 s 9.228 -6.527 10.804 -7.427 s 5.176 -3.376 5.176 -3.376 s 1.35 -0.675 1.576 -2.476 s 4.501 -4.952 4.727 -5.852 s 3.152 -3.15 3.152 -3.15 s 3.15 -1.802 2.925 -2.926 c -0.225 -1.125 4.052 -3.15 4.727 -3.15 s 4.277 1.124 4.277 -0.902 c 0 -2.025 0 -2.476 2.251 -4.276 s 5.176 -4.502 6.302 -4.502 s 4.952 -2.024 6.527 -2.475 s 6.528 -2.702 2.026 0 s -1.576 1.125 -2.476 3.376 s -1.576 5.177 2.701 1.8 s 4.051 -4.052 5.627 -4.276 c 1.576 -0.225 0.45 0.675 3.826 -0.451 s 3.602 -1.575 3.602 -1.575 s 1.576 -1.351 0.675 -2.025 c -0.9 -0.676 0.901 -1.576 -2.476 -0.226 s -3.151 1.576 -5.402 0.9 s -5.627 -0.451 -3.151 -2.702 s 5.627 -2.926 3.601 -3.826 c -2.025 -0.9 -7.202 0.226 -7.877 0.45 c -0.676 0.225 -2.251 -0.225 -3.602 0 s -0.9 -1.799 0 -2.25 s 3.827 -1.802 7.428 -2.702 s 12.38 -1.125 14.405 -1.125 s 4.726 0.451 6.302 -0.675 s 4.727 -2.925 5.177 -3.827 s 2.251 -2.25 2.251 -2.25 s 2.025 -2.026 0.9 -2.926 s -2.251 -2.926 -3.151 -2.476 s -0.224 3.152 -2.025 0.225 c -1.801 -2.925 -1.576 -3.376 -2.476 -4.051 s -1.801 -0.226 -1.125 -3.376 s 0.45 -4.502 0.45 -4.502 s 0.675 -2.7 0 -2.925 c -0.676 -0.226 -1.125 -0.9 -2.25 -0.226 c -1.126 0.675 -7.428 3.827 -8.778 4.502 c -1.351 0.675 -3.152 -2.701 -2.477 -4.276 c 0.676 -1.577 0.225 -0.676 -0.675 -2.926 s -4.501 -2.702 -5.852 -2.702 s -4.501 -2.026 -5.402 -0.675 s -5.626 5.626 -6.528 6.077 s -2.25 -3.826 -2.925 3.151 c -0.676 6.979 2.476 9.004 -1.125 9.454 s -6.753 2.475 -6.753 2.475 s -2.925 0.226 -2.925 2.026 s -1.125 6.077 -2.477 6.527 s -4.727 -0.224 -5.852 -1.575 s 0.225 -6.302 0.225 -6.302 l 2.026 -2.026 c 0 0 -14.405 -2.25 -14.181 -3.151 c 0.226 -0.9 -4.276 -2.475 -4.726 -3.826 s -0.676 -4.277 -0.225 -5.402 s 6.527 -6.527 9.678 -7.652 s 8.553 -3.601 10.129 -4.052 s 4.276 -0.225 5.177 -1.35 s 1.125 -3.151 1.125 -3.151 s -0.45 -3.152 0.45 -2.702 s 2.476 1.126 2.701 1.801 s 0.226 2.251 1.801 0.449 s 3.602 -2.476 5.402 -3.375 s 4.501 -0.675 6.078 -1.575 s 4.276 -1.801 4.501 -4.052 s -0.675 -1.575 -1.801 -1.801 c -1.125 -0.224 0.45 0.226 -3.376 2.026 s -2.701 0.45 -5.402 1.8 s -2.927 1.576 -3.151 0.451 c -0.226 -1.126 0.45 -2.926 0.45 -2.926 s 0.226 -0.226 -1.35 -0.675 s -1.576 0.225 -1.801 -1.8 c -0.225 -2.026 1.125 -4.952 -1.125 -4.052 s -4.276 -0.675 -5.852 3.826 s -6.978 9.229 -8.329 8.103 s -1.575 -1.351 -2.701 -1.351 s -2.701 -1.35 -4.727 -1.575 s -8.104 -0.225 -9.678 0 c -1.576 0.226 -3.376 -0.9 -4.728 0.451 s -3.375 3.151 -3.375 3.827 s -2.026 -2.477 -2.701 -2.251 s -2.477 -0.9 -4.501 -0.9 c -2.026 0 -3.377 -1.126 -4.051 -1.126 c -0.675 0 0.674 -1.801 0 -2.026 c -0.675 -0.224 -15.307 -0.675 -15.307 -0.675 s -4.726 -1.8 -6.526 -1.575 s -6.752 0.449 -10.58 1.125 s -9.454 2.926 -11.254 3.151 c -1.801 0.226 -5.852 0.226 -6.527 -0.9 c -0.676 -1.125 0.225 -0.9 -0.676 -1.125 s -0.224 -0.675 -2.25 -2.25 s 0.901 -2.926 -3.151 -2.926 s -6.527 -0.226 -10.128 0 s -11.029 2.025 -11.929 1.8 c -0.9 -0.225 -8.103 1.126 -9.229 0.451 c -1.125 -0.676 -6.753 2.475 -7.877 2.25 c -1.125 -0.225 -5.402 0.226 -6.527 0.901 s -6.528 2.025 -4.727 3.151 s 1.575 2.25 1.8 2.926 s -1.8 2.25 -1.8 2.25 s -0.451 0 -2.926 -0.9 s -5.177 -1.35 -6.303 -0.675 s -3.151 2.027 -2.701 2.927 s 3.601 2.926 4.052 2.25 s 1.576 -2.025 2.926 -1.8 c 1.351 0.226 3.377 -0.9 1.576 1.351 s -3.377 3.376 -4.502 3.602 c -1.125 0.224 -3.826 0.449 -6.302 0.675 s -2.252 -0.9 -4.502 1.351 s -3.151 0.9 -3.601 3.376 s -0.9 2.475 0 3.151 s -1.801 0.9 0.225 1.575 c 2.025 0.676 4.501 1.351 4.276 2.025 c -0.226 0.676 2.251 -0.899 0.9 0.9 s -2.25 3.376 0.45 1.576 s 4.276 -0.451 6.527 -1.576 s 4.502 -1.35 5.852 -2.25 s 2.026 -2.25 4.052 -2.927 s 0.675 0.226 0.9 1.351 c 0.225 1.125 0 1.35 1.351 0.449 s 1.35 -0.224 3.151 -1.35 s 3.826 -2.251 5.177 -1.576 c 1.35 0.676 1.8 0.676 2.701 0.676 s -1.125 -0.226 0.9 0 c 2.026 0.224 -0.9 -0.676 5.852 0.9 s 8.554 0.45 9.003 2.926 s 1.351 -0.226 2.476 1.35 s 1.801 0.226 2.476 2.926 s 0 10.129 -0.45 11.029 s -0.675 0.9 -0.45 2.926 c 0.225 2.025 2.926 11.705 2.026 12.379 s -2.926 0.9 -2.926 0.9 l -1.125 4.051 c 0 0 -1.8 3.376 -3.376 5.177 s -3.601 4.052 -4.727 5.626 c -1.125 1.576 -2.026 4.278 -3.601 5.853 s -2.926 0.9 -2.476 4.276 s 0 6.977 0.45 9.454 s 1.576 5.852 2.476 7.203 s 1.576 1.35 3.151 2.475 c 1.576 1.125 3.602 2.477 3.376 3.602 s 0.225 8.104 0.225 8.104 s 1.351 2.25 1.575 4.726 c 0.226 2.477 1.801 4.952 1.801 4.952 l 1.351 2.927 c 0 0 0.675 0.226 1.576 2.025 s 0.9 1.801 1.125 2.7 c 0.226 0.902 0.226 0.676 0.226 0.902 c 0 0.224 -0.226 -3.827 -0.676 -4.953 s -0.45 -2.475 -0.9 -3.826 s 0.225 -2.927 -1.125 -4.952 s -1.35 -2.251 -2.025 -4.277 c -0.675 -2.025 -1.576 -4.276 -0.675 -4.727 s 1.575 -3.375 3.376 0 s 2.026 2.477 2.251 5.178 c 0.224 2.701 0.9 3.602 1.575 4.726 c 0.675 1.125 2.25 4.953 3.151 6.527 c 0.9 1.576 0 -0.9 2.025 2.251 c 2.026 3.151 2.252 3.826 3.377 6.302 s 1.801 2.476 2.476 4.276 s 0.225 1.351 -0.226 3.376 s 0.45 4.277 0.45 4.277 s 3.151 1.125 3.376 1.8 s 3.376 1.8 3.827 2.701 s 3.376 2.025 3.376 2.025 s 2.476 1.576 3.375 2.026 s 3.603 0.901 3.603 0.901 s 1.8 0.451 2.475 0.675 c 0.675 0.225 2.701 0.225 2.701 0.225 s 1.801 -1.35 2.476 -0.9 s 2.251 -0.901 2.926 0.224 s 2.026 1.126 2.701 2.027 s 1.35 0.9 2.476 2.025 s 2.251 0.9 3.376 1.8 s 2.025 0.9 3.376 0.9 s 1.35 0 2.251 0.226 s 1.35 -0.676 2.25 0.451 s 1.575 1.8 2.25 2.925 c 0.675 1.125 2.251 1.125 2.476 2.926 s 0.675 1.577 0.675 3.151 c 0 1.576 0.9 2.251 1.576 2.702 c 0.674 0.449 3.15 2.699 3.15 2.699 l 3.376 0.676 l 2.701 2.026 l 2.929 0.897 Z" />
 <path fill="white" d="m 205.935 8.03 l 13.505 -1.688 c 0 0 4.726 0 7.09 -1.688 s 0 -1.688 7.09 -3.038 s 5.065 -2.026 8.779 -1.351 c 3.713 0.676 4.726 0.676 8.778 1.351 c 4.051 0.675 5.064 -0.337 8.777 0.675 s 5.402 0.675 8.441 0.675 h 9.453 c 4.727 0 9.116 -2.701 10.804 -1.013 s 2.701 1.013 8.441 1.688 s 8.103 -0.676 10.466 0 s 6.416 -0.337 11.142 0 s 7.09 -0.337 8.778 -0.337 s 3.375 -2.364 5.739 -0.338 s 5.402 -0.675 5.739 2.026 s 4.727 0.675 0.338 2.701 s -3.714 1.688 -6.753 4.389 s 2.026 5.064 -4.389 7.428 s -7.428 -1.351 -9.116 2.701 s 0 5.064 -0.337 7.09 c -0.338 2.025 -1.013 2.363 -3.039 4.051 c -2.025 1.688 -2.025 0 -6.752 1.013 s -8.103 2.026 -10.128 2.026 s -6.415 1.688 -7.766 2.363 s 2.364 1.688 -4.727 3.714 s -8.779 1.689 -10.804 4.389 s -1.351 3.04 -2.701 4.728 s -5.402 8.441 -7.428 6.753 c -2.025 -1.688 -3.039 -1.351 -4.727 -3.039 s -2.701 -4.051 -3.714 -5.402 s -1.351 -4.727 -1.688 -6.753 s -3.377 -6.752 0 -6.077 c 3.376 0.675 5.402 0.338 6.415 -0.337 s 2.026 -3.039 2.026 -3.039 s -0.337 -3.714 -1.351 -5.74 s -0.337 -3.714 -2.025 -5.739 c -1.688 -2.026 -1.688 -1.688 -4.052 -3.714 s -1.688 -3.039 -5.402 -3.376 s -4.727 -1.351 -6.078 -1.013 s -5.739 -2.364 -1.013 -2.701 s 9.116 0.337 9.116 0.337 s 6.077 -2.701 4.052 -3.038 c -2.025 -0.338 3.038 -3.377 -1.688 -2.364 s -10.128 2.364 -11.479 2.701 s -4.727 0.675 -8.103 1.688 s -7.428 0.676 -9.453 3.039 c -2.026 2.363 0 2.701 -2.026 2.363 c -2.025 -0.337 1.688 -2.363 -3.038 0 s -3.376 2.026 -5.739 1.351 c -2.364 -0.675 -4.052 -1.688 -4.052 -1.688 s 3.04 -0.338 -1.35 -0.675 s -4.389 -0.337 -6.077 -2.364 s -0.675 -2.026 0.337 -2.701 s 1.689 -2.027 1.689 -2.027 Z" />
 <path fill="white" d="m 198.507 23.223 c -1.688 1.688 -5.74 4.052 -4.726 5.065 s 1.688 4.727 3.714 3.714 c 2.025 -1.013 -0.338 -4.389 7.427 -1.688 c 7.766 2.701 7.09 -0.337 8.778 3.714 s 3.038 7.089 2.025 8.103 s -1.35 2.026 -4.727 3.039 s -4.727 2.364 -2.363 4.051 s 6.753 3.376 8.778 4.39 s 8.103 1.351 5.064 -2.025 s 0.675 -4.39 0.675 -4.39 s 5.74 4.39 3.715 -0.675 s -3.377 -5.064 -2.026 -5.064 s 4.051 1.688 4.051 1.688 l 1.351 -2.701 l -1.351 -4.389 l -4.389 -4.389 c 0 0 3.713 -3.376 -1.351 -4.051 s -4.727 -0.675 -7.428 -2.364 s -3.038 -2.363 -8.103 -1.35 s -6.752 1.688 -6.752 1.688 l -2.362 -2.366 Z" />
 <path fill="white" d="m 123.218 27.275 c 2.026 -2.026 7.428 -6.752 9.454 -5.402 c 2.025 1.35 5.063 -1.013 7.427 1.013 s 5.064 4.389 7.09 5.064 c 2.026 0.675 4.389 -1.688 6.415 -0.675 c 2.025 1.013 9.115 -5.064 7.765 -0.337 s 1.688 6.077 -2.026 6.415 s -7.765 3.039 -9.454 2.026 s -3.039 -2.026 -5.74 -0.675 s -1.35 1.35 -4.389 0.675 s -3.713 0.675 -4.388 -0.338 c -0.676 -1.012 -2.701 -0.675 -2.364 -3.714 s 1.35 -2.701 -0.676 -2.701 c -2.025 0 -3.713 0.338 -5.064 -0.675 s -4.05 -0.676 -4.05 -0.676 Z" />
</svg>